<svg width="1208" height="224" viewBox="0 0 1208 224" fill="none" xmlns="http://www.w3.org/2000/svg">
	<g filter="url(#filter0_d_708_34)">
		<path fill-rule="evenodd" clip-rule="evenodd" d="M4 80H54C104 80 204 80 304 62C404 44 504 8 604 8C704 8 804 44 904 74C1004 104 1104 128 1154 140L1204 152V224H1154C1104 224 1004 224 904 224C804 224 704 224 604 224C504 224 404 224 304 224C204 224 104 224 54 224H4V80Z" fill="#181818" />
	</g>
	<defs>
		<filter id="filter0_d_708_34" x="0" y="0" width="1208" height="224" filterUnits="userSpaceOnUse" color-interpolation-filters="sRGB">
			<feFlood flood-opacity="0" result="BackgroundImageFix" />
			<feColorMatrix in="SourceAlpha" type="matrix" values="0 0 0 0 0 0 0 0 0 0 0 0 0 0 0 0 0 0 127 0" result="hardAlpha" />
			<feOffset dy="-4" />
			<feGaussianBlur stdDeviation="2" />
			<feComposite in2="hardAlpha" operator="out" />
			<feColorMatrix type="matrix" values="0 0 0 0 0 0 0 0 0 0 0 0 0 0 0 0 0 0 0.25 0" />
			<feBlend mode="normal" in2="BackgroundImageFix" result="effect1_dropShadow_708_34" />
			<feBlend mode="normal" in="SourceGraphic" in2="effect1_dropShadow_708_34" result="shape" />
		</filter>
	</defs>
</svg>
