<svg width="1204" height="220" viewBox="0 0 1204 220" fill="none" xmlns="http://www.w3.org/2000/svg">
<g filter="url(#filter0_d_708_34)">
<path fill-rule="evenodd" clip-rule="evenodd" d="M2 75H52C102 75 202 75 302 57C402 39 502 3 602 3C702 3 802 39 902 69C1002 99 1102 123 1152 135L1202 147V219H1152C1102 219 1002 219 902 219C802 219 702 219 602 219C502 219 402 219 302 219C202 219 102 219 52 219H2V75Z" fill="#181818"/>
</g>
<defs>
<filter id="filter0_d_708_34" x="0" y="0" width="1204" height="220" filterUnits="userSpaceOnUse" color-interpolation-filters="sRGB">
<feFlood flood-opacity="0" result="BackgroundImageFix"/>
<feColorMatrix in="SourceAlpha" type="matrix" values="0 0 0 0 0 0 0 0 0 0 0 0 0 0 0 0 0 0 127 0" result="hardAlpha"/>
<feOffset dy="-1"/>
<feGaussianBlur stdDeviation="1"/>
<feComposite in2="hardAlpha" operator="out"/>
<feColorMatrix type="matrix" values="0 0 0 0 0.0941176 0 0 0 0 0.0941176 0 0 0 0 0.0941176 0 0 0 0.25 0"/>
<feBlend mode="normal" in2="BackgroundImageFix" result="effect1_dropShadow_708_34"/>
<feBlend mode="normal" in="SourceGraphic" in2="effect1_dropShadow_708_34" result="shape"/>
</filter>
</defs>
</svg>
